<svg xmlns="http://www.w3.org/2000/svg" width="1100" height="700" viewBox="0 0 1100 700"><style>text{font-family:Arial, sans-serif; font-size:14px; fill:#1b1b1b}.title{font-size:18px; font-weight:bold}.box{fill:#f7f7f7; stroke:#333; stroke-width:1.5}.arrow{stroke:#333; stroke-width:1.5; fill:none; marker-end:url(#arrow)}</style><defs><marker id="arrow" markerWidth="10" markerHeight="10" refX="10" refY="3" orient="auto"><path d="M0,0 L10,3 L0,6" fill="#333"/></marker></defs><text x="30" y="40" class="title">Deployment Topology (Local Wi-Fi)</text><rect x="40" y="80" width="1020" height="560" class="box"/><text x="60" y="110">Restaurant Local Network</text><rect x="80" y="150" width="300" height="170" class="box"/><text x="100" y="180">Table Devices (xN)</text><text x="100" y="205">- Browser kiosk</text><text x="100" y="230">- React app</text><rect x="420" y="150" width="280" height="170" class="box"/><text x="440" y="180">Main Server PC</text><text x="440" y="205">- FastAPI</text><text x="440" y="230">- WebSocket hub</text><rect x="740" y="150" width="280" height="170" class="box"/><text x="760" y="180">Kitchen Display</text><text x="760" y="205">- Order queue</text><rect x="420" y="360" width="280" height="170" class="box"/><text x="440" y="390">Database</text><text x="440" y="415">- SQLite/Postgres</text><rect x="80" y="360" width="300" height="170" class="box"/><text x="100" y="390">Staff Dashboard</text><text x="100" y="415">- Admin + reports</text><rect x="740" y="360" width="280" height="170" class="box"/><text x="760" y="390">AI Service</text><text x="760" y="415">- Recommendations</text><path d="M380 235 L420 235" class="arrow"/><path d="M700 235 L740 235" class="arrow"/><path d="M560 320 L560 360" class="arrow"/><path d="M380 445 L420 445" class="arrow"/><path d="M700 445 L740 445" class="arrow"/></svg>