<svg xmlns="http://www.w3.org/2000/svg" width="1100" height="650" viewBox="0 0 1100 650"><style>text{font-family:Arial, sans-serif; font-size:14px; fill:#1b1b1b}.title{font-size:18px; font-weight:bold}.box{fill:#f7f7f7; stroke:#333; stroke-width:1.5}.arrow{stroke:#333; stroke-width:1.5; fill:none; marker-end:url(#arrow)}</style><defs><marker id="arrow" markerWidth="10" markerHeight="10" refX="10" refY="3" orient="auto"><path d="M0,0 L10,3 L0,6" fill="#333"/></marker></defs><text x="30" y="40" class="title">Local Network - Detailed Sequence</text><text x="70" y="90">Table Device</text><text x="370" y="90">Main Server</text><text x="670" y="90">AI Service</text><text x="900" y="90">Database</text><line x1="100" y1="110" x2="100" y2="600" stroke="#999" stroke-dasharray="4 4"/><line x1="400" y1="110" x2="400" y2="600" stroke="#999" stroke-dasharray="4 4"/><line x1="700" y1="110" x2="700" y2="600" stroke="#999" stroke-dasharray="4 4"/><line x1="930" y1="110" x2="930" y2="600" stroke="#999" stroke-dasharray="4 4"/><path d="M100 150 L400 150" class="arrow"/><text x="140" y="140">WS connect + table status</text><path d="M100 200 L400 200" class="arrow"/><text x="140" y="190">Fetch menu (REST)</text><path d="M400 240 L700 240" class="arrow"/><text x="430" y="230">Request recommendations</text><path d="M700 280 L400 280" class="arrow"/><text x="450" y="270">Ranked items</text><path d="M400 320 L930 320" class="arrow"/><text x="470" y="310">Save order + feedback</text><path d="M100 380 L400 380" class="arrow"/><text x="140" y="370">Place order</text><path d="M400 420 L100 420" class="arrow"/><text x="160" y="410">Push status updates</text><path d="M100 470 L400 470" class="arrow"/><text x="140" y="460">Submit feedback</text><path d="M400 510 L930 510" class="arrow"/><text x="470" y="500">Store ratings</text></svg>